<?xml version="1.0" ?><!DOCTYPE svg  PUBLIC '-//W3C//DTD SVG 1.1//EN'  'http://www.w3.org/Graphics/SVG/1.1/DTD/svg11.dtd'><svg enable-background="new 0 0 40 40" version="1.1" viewBox="0 0 40 40" xml:space="preserve" xmlns="http://www.w3.org/2000/svg" xmlns:xlink="http://www.w3.org/1999/xlink"><g id="Social"><g id="GitHub"><path clip-rule="evenodd" d="M18.4,8.1c7.8-1,14.5,5.6,13.5,13.5c-0.7,5.3-5,9.7-10.3,10.3    c-7.8,1-14.5-5.6-13.5-13.5C8.8,13.1,13.1,8.8,18.4,8.1z" fill="#ECF0F1" fill-rule="evenodd"/><path d="M16.7,31.3v-3.9c-0.6,0.1-1,0.1-1.2,0.1c-1.2,0-2.1-0.6-2.6-1.7c-0.2-0.4-0.4-0.8-0.6-1.1    c-0.1-0.1-0.2-0.2-0.4-0.3c-0.2-0.2-0.3-0.3-0.5-0.4c-0.2-0.1-0.2-0.2-0.2-0.3c0-0.1,0.2-0.2,0.5-0.2c0.7,0,1.2,0.4,1.5,0.8    c0.3,0.5,0.7,1,1.2,1.3c0.3,0.2,0.6,0.3,0.9,0.3c0.5,0,0.9-0.1,1.4-0.2c0.2-0.6,0.5-1.2,1.1-1.5c-3.7-0.4-5.5-1.7-5.5-5.2    c0-1.3,0.4-2.5,1.2-3.4c-0.2-0.5-0.2-0.9-0.2-1.4c0-0.7,0.2-1.3,0.5-1.8c1.3,0,2.1,0.4,3.4,1.4c0.9-0.2,1.8-0.3,2.9-0.3    c0.9,0,1.8,0.1,2.6,0.3c1.3-0.9,2.1-1.3,3.4-1.3c0.3,0.6,0.5,1.2,0.5,1.8c0,0.5-0.1,0.9-0.2,1.4c0.8,0.9,1.2,2,1.2,3.4    c0,3.5-1.8,4.9-5.5,5.2c0.8,0.5,1.2,1.3,1.2,2.2v4.8L16.7,31.3z" fill="#9B59B6"/><path d="M18.3,7.1C12.5,7.8,7.8,12.5,7.1,18.3C6,26.8,13.2,34,21.7,32.9    c5.8-0.7,10.5-5.4,11.2-11.2C34,13.2,26.8,6,18.3,7.1z M30.8,21.9c-0.7,4.6-4.4,8.2-9,9c-7.5,1.2-13.9-5.2-12.7-12.7    c0.7-4.6,4.4-8.2,9-9C25.7,7.9,32.1,14.3,30.8,21.9z" fill="#9B59B6" id="_x3C_Path_x3E_"/></g><g id="Soundcloud_3_"/><g id="Dropbox_2_"/><g id="Instagram_7_"/><g id="WordPress_3_"/><g id="PlayStation"/><g id="XBox_2_"/><g id="Windows_2_"/><g id="iOS_1_"/><g id="Apple_2_"/><g id="Android_2_"/><g id="Deviantart_2_"/><g id="Yelp_2_"/><g id="Picassa_6_"/><g id="LastFM_2_"/><g id="Amazon_3_"/><g id="AIM_2_"/><g id="fffound_1_"/><g id="Forrst_3_"/><g id="Yahoo_3_"/><g id="YouTube_3_"/><g id="Behance_2_"/><g id="Tumblr_2_"/><g id="Vimeo_2_"/><g id="Skype_3_"/><g id="Pinterest_2_"/><g id="LinkedIn_1_"/><g id="Dribbble_3_"/><g id="Flickr_3_"/><g id="Google_Plus_2_"/><g id="RSS_2_"/><g id="Twitter_2_"/><g id="Facebook_2_"/></g><g id="Lockup"/></svg>